<svg width="236" height="38" viewBox="0 0 236 38" fill="none" xmlns="http://www.w3.org/2000/svg">
<g id="apto leaflet for whatsapp 1" clip-path="url(#clip0_220_387)">
<g id="Layer_x0020_1">
<g id="_2414957932128">
<path id="Vector" d="M25.6078 24.7399C25.6663 24.6764 25.7248 24.6124 25.7822 24.5477C25.7869 24.5422 25.7919 24.5368 25.7965 24.5314C25.8086 24.5182 25.8198 24.5046 25.8314 24.4914C25.89 24.4248 25.9485 24.3577 26.0063 24.2903C26.014 24.2806 26.0222 24.2709 26.0303 24.2612C26.2974 23.9449 26.5517 23.6165 26.792 23.2781C26.799 23.268 26.8064 23.258 26.8137 23.2479C26.8645 23.1766 26.9137 23.1041 26.963 23.0316C26.9781 23.0091 26.9932 22.9874 27.0083 22.9649C27.0537 22.8967 27.099 22.8281 27.1436 22.7595C27.1611 22.7319 27.1789 22.7048 27.1963 22.6777C27.239 22.611 27.2812 22.5435 27.3227 22.4761C27.3413 22.4462 27.3591 22.4164 27.3774 22.3869C27.4177 22.3199 27.4584 22.2528 27.4979 22.1854C27.5158 22.1547 27.5332 22.1241 27.551 22.0935C27.5902 22.0253 27.6289 21.9566 27.6673 21.888C27.6832 21.859 27.6991 21.8295 27.7154 21.8004C27.7542 21.7291 27.7929 21.6578 27.8309 21.5857C27.8421 21.5636 27.8534 21.5415 27.8646 21.5198C27.9953 21.267 28.1185 21.0104 28.2348 20.7495C28.2453 20.7259 28.2565 20.7026 28.2666 20.6786C28.2965 20.6115 28.3248 20.5433 28.3535 20.4755C28.3701 20.4355 28.3872 20.396 28.4035 20.3561C28.4294 20.2925 28.4546 20.2285 28.4798 20.1649C28.4977 20.1196 28.5155 20.0742 28.5333 20.0289C28.557 19.9672 28.5798 19.9056 28.6023 19.8436C28.6202 19.7951 28.638 19.7463 28.6554 19.6974C28.6771 19.637 28.6985 19.5765 28.719 19.5156C28.7364 19.4645 28.7535 19.4133 28.7702 19.3621C28.7899 19.3024 28.8093 19.2427 28.8283 19.1827C28.8454 19.1292 28.8617 19.0753 28.8779 19.021C28.8954 18.9625 28.9132 18.9043 28.9303 18.8458C28.9469 18.7884 28.9624 18.731 28.9783 18.6733C28.9938 18.6171 29.0097 18.5613 29.0241 18.5051C29.0415 18.438 29.0582 18.3709 29.0745 18.3039C29.0865 18.2562 29.0989 18.2089 29.1101 18.1608C29.1369 18.0484 29.1621 17.9356 29.1861 17.8224C29.1958 17.7767 29.2047 17.7302 29.2136 17.684C29.228 17.6127 29.2427 17.5406 29.2559 17.4689C29.2652 17.4181 29.2737 17.3673 29.283 17.3165C29.2947 17.2483 29.3067 17.1805 29.3175 17.1119C29.3261 17.0595 29.3342 17.0068 29.3416 16.9545C29.3516 16.8866 29.3617 16.8192 29.3706 16.7517C29.378 16.6986 29.3846 16.6459 29.3912 16.5928C29.3997 16.5246 29.4078 16.456 29.4152 16.3874C29.421 16.335 29.4265 16.2819 29.4319 16.2292C29.4389 16.159 29.4451 16.0885 29.4513 16.0179C29.4555 15.9664 29.4602 15.9152 29.4637 15.8636C29.4691 15.7896 29.4737 15.7159 29.478 15.6415C29.4807 15.5931 29.4842 15.5442 29.4865 15.4958C29.4904 15.4136 29.4935 15.331 29.4962 15.2484C29.4974 15.2074 29.4997 15.1667 29.5005 15.1256C29.5036 15.0019 29.5051 14.8779 29.5051 14.7534C29.5051 6.6063 22.9005 0.0012207 14.7529 0.0012207C6.60542 0.0012207 0.000732422 6.6063 0.000732422 14.7534C0.000732422 14.8779 0.00267065 15.0019 0.00538416 15.1256C0.00654709 15.1663 0.00848532 15.2074 0.00964825 15.2484C0.0123618 15.331 0.0150753 15.4136 0.0193394 15.4958C0.0216652 15.5442 0.0247664 15.5931 0.0278676 15.6415C0.0321316 15.7159 0.0367834 15.7896 0.0422104 15.8636C0.0460869 15.9152 0.0507386 15.9664 0.0550027 16.0179C0.0608173 16.0885 0.0670197 16.159 0.0739973 16.2292C0.0794243 16.2819 0.0848513 16.3346 0.090666 16.3874C0.0984189 16.456 0.106172 16.5246 0.1147 16.5928C0.12129 16.6459 0.128268 16.699 0.135245 16.7517C0.144549 16.8196 0.15424 16.887 0.164318 16.9545C0.172071 17.0068 0.179824 17.0599 0.188352 17.1119C0.199206 17.1801 0.211223 17.2483 0.22324 17.3165C0.232156 17.3673 0.240684 17.4181 0.249988 17.4689C0.263556 17.541 0.277898 17.6127 0.292241 17.684C0.301545 17.7298 0.310073 17.7767 0.319764 17.8224C0.343798 17.9356 0.368995 18.0488 0.395742 18.1608C0.406984 18.2089 0.419389 18.2562 0.431018 18.3039C0.447687 18.3709 0.464355 18.438 0.481799 18.5051C0.49653 18.5613 0.512423 18.6175 0.527542 18.6733C0.543435 18.731 0.559328 18.7884 0.57561 18.8458C0.592666 18.9043 0.610498 18.9629 0.627554 19.021C0.644223 19.0749 0.660116 19.1292 0.677172 19.1827C0.695779 19.2427 0.715549 19.302 0.734931 19.3621C0.751988 19.4133 0.769044 19.4645 0.786488 19.5156C0.807421 19.5765 0.828354 19.637 0.850062 19.6974C0.867118 19.7463 0.88495 19.7951 0.903169 19.8436C0.925653 19.9056 0.948911 19.9672 0.972558 20.0289C0.990002 20.0742 1.00783 20.1196 1.02567 20.1649C1.05086 20.2285 1.07606 20.2925 1.10203 20.3561C1.1187 20.396 1.13576 20.4355 1.15242 20.4755C1.18111 20.5433 1.20941 20.6111 1.23887 20.6786C1.24934 20.7026 1.26058 20.7259 1.27104 20.7495C1.38734 21.0104 1.51061 21.267 1.64163 21.5198C1.65287 21.5415 1.66412 21.5636 1.67536 21.5857C1.71296 21.6578 1.75172 21.7291 1.79088 21.8004C1.80677 21.8295 1.82266 21.859 1.83856 21.888C1.87655 21.9566 1.9157 22.0253 1.95485 22.0935C1.97268 22.1241 1.99013 22.1547 2.00796 22.1854C2.0475 22.2528 2.08742 22.3199 2.12813 22.3869C2.14596 22.4168 2.16457 22.4466 2.18278 22.4761C2.22465 22.5439 2.26652 22.611 2.30916 22.6777C2.3266 22.7052 2.34443 22.7323 2.36226 22.7595C2.40684 22.8281 2.45181 22.8967 2.49755 22.9649C2.51228 22.987 2.52779 23.0091 2.54291 23.0316C2.59214 23.1041 2.64176 23.1766 2.69215 23.2479C2.69913 23.2584 2.70649 23.268 2.71386 23.2781C2.9542 23.6165 3.2081 23.9449 3.47558 24.2612C3.48372 24.2709 3.49186 24.2806 3.5 24.2903C3.55776 24.3581 3.61591 24.4248 3.67444 24.4914C3.68607 24.505 3.6977 24.5182 3.70894 24.5314C3.71398 24.5368 3.71902 24.5422 3.72406 24.5477C3.78143 24.6124 3.83958 24.6764 3.89811 24.7399C3.91827 24.762 3.93843 24.7837 3.95858 24.8054C4.01479 24.8659 4.07178 24.926 4.12876 24.9853C4.14117 24.9981 4.15279 25.0109 4.1652 25.0237C4.16675 25.0252 4.16791 25.0268 4.16946 25.0279C4.18148 25.0404 4.1935 25.0524 4.2059 25.0644C4.25281 25.1125 4.3001 25.1601 4.34739 25.2074C4.37259 25.233 4.39856 25.2578 4.42415 25.2826C4.46446 25.3218 4.504 25.3621 4.5447 25.4013C4.61022 25.4644 4.6765 25.5261 4.74318 25.5877C4.76682 25.609 4.78969 25.6311 4.81295 25.6528C4.86025 25.6962 4.90909 25.7381 4.95677 25.7808C4.96607 25.7893 4.97538 25.7978 4.98507 25.806C4.9905 25.8106 4.99553 25.8153 5.00057 25.8199C5.00329 25.8222 5.006 25.8246 5.0091 25.8273C5.02926 25.8451 5.04903 25.8629 5.0688 25.8808C5.075 25.8862 5.0812 25.892 5.08779 25.8974C5.13237 25.9358 5.17773 25.9734 5.22231 26.011C5.23781 26.0246 5.25332 26.0378 5.26921 26.0509C5.33938 26.1095 5.40993 26.1676 5.48087 26.225C5.48823 26.2308 5.49521 26.2366 5.50257 26.2424C5.51343 26.2514 5.52467 26.2603 5.53591 26.2692C5.54444 26.2762 5.55297 26.2828 5.5615 26.2893C5.596 26.3169 5.63011 26.3456 5.665 26.3727C5.68632 26.3894 5.70802 26.4053 5.72935 26.4223C5.74369 26.4332 5.75803 26.4444 5.77237 26.4553C5.78672 26.4661 5.80145 26.4774 5.81618 26.4882C5.86347 26.5246 5.91038 26.5611 5.95844 26.5964C5.98868 26.6188 6.0193 26.6409 6.04954 26.663C6.04993 26.663 6.04993 26.663 6.04993 26.663C6.06427 26.6739 6.07861 26.684 6.09334 26.6948C6.10303 26.7018 6.11273 26.7084 6.12242 26.7154C6.167 26.7479 6.21158 26.7805 6.25693 26.8127C6.286 26.8332 6.31585 26.8534 6.34531 26.8739C6.34803 26.8755 6.35074 26.8774 6.35384 26.8793C6.35655 26.8813 6.35966 26.8836 6.36276 26.8855C6.42866 26.9313 6.49494 26.9766 6.56201 27.0216C6.59845 27.0456 6.63488 27.0697 6.67132 27.0937C6.6721 27.0941 6.67287 27.0945 6.67365 27.0949C6.67442 27.0956 6.6752 27.096 6.67597 27.0968C6.7411 27.1395 6.80622 27.1817 6.87212 27.2232C6.90624 27.2449 6.94112 27.2666 6.97562 27.2879C6.99423 27.2992 7.01206 27.3108 7.03067 27.322C7.07486 27.3496 7.11944 27.3763 7.16402 27.403C7.17216 27.4077 7.17991 27.4127 7.18805 27.4178C7.22876 27.4422 7.27062 27.4666 7.31171 27.4907C7.37722 27.529 7.44351 27.567 7.5098 27.6046C7.52337 27.6124 7.53693 27.6201 7.5505 27.6275C7.58074 27.6446 7.61097 27.6616 7.64121 27.6783C7.69393 27.7073 7.74704 27.7364 7.80014 27.7647C7.83426 27.7826 7.86798 27.8004 7.90248 27.8186C7.92303 27.8295 7.94357 27.8403 7.96412 27.8512C8.02071 27.8806 8.0777 27.9093 8.13507 27.9376C8.14321 27.9419 8.15135 27.9461 8.15949 27.9504C8.16337 27.9523 8.16724 27.9543 8.17151 27.9562C8.17693 27.9589 8.18236 27.9616 8.1874 27.964C8.21492 27.9779 8.24245 27.9915 8.27036 28.0051C8.27036 28.0054 8.27036 28.0054 8.27036 28.0054C8.27927 28.0097 8.28819 28.0144 8.2971 28.0182C8.31067 28.0252 8.32424 28.0314 8.33781 28.0376C8.36727 28.052 8.39634 28.0659 8.4258 28.0799C8.46263 28.0973 8.49945 28.1144 8.53628 28.1314C8.56884 28.1469 8.60141 28.1621 8.63436 28.1772C8.67079 28.1938 8.70801 28.2097 8.74483 28.2264C8.76073 28.2334 8.77662 28.2407 8.7929 28.2481C8.81694 28.2586 8.84097 28.269 8.865 28.2795C8.90222 28.2958 8.93866 28.3121 8.97587 28.328C8.99099 28.3342 9.00649 28.3404 9.02161 28.347C9.03751 28.3536 9.0534 28.3605 9.0689 28.3671C9.12395 28.3904 9.17938 28.4125 9.23443 28.4346C9.23443 28.435 9.23482 28.435 9.23482 28.435C9.24838 28.4404 9.26195 28.4462 9.27513 28.4516C9.28172 28.4543 9.2887 28.4571 9.29529 28.4602C9.30382 28.4636 9.31273 28.4675 9.32126 28.4706C9.34375 28.4795 9.36623 28.4877 9.38871 28.4962C9.40771 28.5036 9.42631 28.5113 9.44531 28.5183V28.5179C9.52051 28.547 9.59533 28.5764 9.67092 28.604C9.6996 28.2221 9.71433 27.8372 9.71433 27.448C9.71433 23.5836 8.28237 20.0537 5.92045 17.3588C5.93325 17.3382 5.94759 17.3181 5.96077 17.2968C4.69085 15.5248 3.94308 13.3533 3.94308 11.0065C3.94308 7.20598 5.90456 3.8641 8.87004 1.93634C10.7191 0.847449 12.7674 0.195818 14.7537 0.195818C16.7404 0.195818 18.7883 0.847449 20.6374 1.93634C23.6029 3.8641 25.5647 7.20598 25.5647 11.0065C25.5647 13.3533 24.817 15.5248 23.5467 17.2968C23.5598 17.3177 23.5738 17.3382 23.587 17.3588C21.2254 20.0537 19.7931 23.5836 19.7931 27.448C19.7931 27.8372 19.8078 28.2221 19.8365 28.604C19.9125 28.5764 19.9873 28.547 20.0621 28.5179C20.0621 28.5183 20.0617 28.5183 20.0621 28.5183C20.0811 28.5109 20.0997 28.5036 20.1191 28.4962C20.1412 28.4877 20.1641 28.4795 20.1862 28.4706C20.1951 28.4671 20.2036 28.4636 20.2121 28.4602C20.2191 28.4574 20.2257 28.4543 20.2327 28.4516C20.2463 28.4462 20.2594 28.4408 20.273 28.435C20.273 28.435 20.273 28.435 20.2734 28.4346C20.3288 28.4125 20.3839 28.3904 20.4389 28.3671C20.4548 28.3605 20.4707 28.3536 20.4862 28.347C20.5013 28.3408 20.5168 28.3346 20.5319 28.328C20.5692 28.3121 20.6056 28.2958 20.6424 28.2795H20.6428C20.6668 28.269 20.6913 28.2586 20.7149 28.2481C20.7308 28.2407 20.7467 28.2334 20.763 28.2264C20.7998 28.2097 20.8366 28.1938 20.8735 28.1772C20.9064 28.1621 20.939 28.1469 20.9715 28.1314C21.0084 28.1144 21.0456 28.0973 21.082 28.0799C21.1115 28.0659 21.1405 28.0516 21.17 28.0376C21.1836 28.0314 21.1971 28.0248 21.2107 28.0182C21.2196 28.014 21.2282 28.0097 21.2371 28.0054C21.2371 28.0054 21.2375 28.0054 21.2375 28.0051C21.265 27.9915 21.2929 27.9779 21.3204 27.964C21.3258 27.9613 21.3313 27.9585 21.3363 27.9562C21.3402 27.9543 21.3444 27.9523 21.3483 27.9504C21.3565 27.9461 21.3646 27.9419 21.3727 27.9376C21.4297 27.9093 21.4867 27.8806 21.5433 27.8512C21.5639 27.8403 21.5848 27.8295 21.6049 27.8186H21.6053C21.6394 27.8008 21.6736 27.7829 21.7073 27.7647C21.7604 27.736 21.8135 27.707 21.8662 27.6783C21.8965 27.6616 21.9267 27.6446 21.9569 27.6279V27.6275C21.9705 27.6201 21.9841 27.6124 21.9976 27.6046C22.0639 27.5674 22.1298 27.5294 22.1957 27.4907C22.2372 27.4666 22.2783 27.4422 22.3194 27.4178C22.3271 27.4127 22.3353 27.4077 22.343 27.403C22.3876 27.3763 22.4322 27.3496 22.4768 27.322C22.495 27.3108 22.5132 27.2992 22.5314 27.2879C22.5663 27.2666 22.6008 27.2449 22.6353 27.2232C22.7008 27.1817 22.7663 27.1391 22.8315 27.0968C22.8322 27.096 22.8334 27.0956 22.8338 27.0949C22.8346 27.0945 22.8353 27.0941 22.8361 27.0937C22.8725 27.0697 22.9094 27.0456 22.9454 27.0216C23.0121 26.9766 23.0784 26.9313 23.1443 26.8855C23.147 26.8836 23.1501 26.8813 23.1532 26.8793C23.1559 26.8774 23.159 26.8751 23.1617 26.8735C23.1912 26.8534 23.2206 26.8332 23.2497 26.8123C23.2951 26.7801 23.3397 26.7475 23.3842 26.715C23.3935 26.708 23.4036 26.7014 23.4133 26.6944C23.4277 26.684 23.4424 26.6735 23.4567 26.6626C23.4571 26.6626 23.4571 26.6626 23.4571 26.6626C23.4873 26.6406 23.5184 26.6185 23.5482 26.596C23.5963 26.5607 23.6432 26.5239 23.6905 26.4878C23.7048 26.477 23.7195 26.4657 23.7339 26.4549C23.7482 26.444 23.7626 26.4328 23.7769 26.4219C23.7982 26.4052 23.8199 26.3894 23.8413 26.3723C23.8765 26.3452 23.9107 26.3169 23.9452 26.289C23.9537 26.282 23.9622 26.2758 23.9707 26.2688C23.9816 26.2603 23.9928 26.2514 24.0041 26.2421C24.0111 26.2362 24.018 26.2304 24.0254 26.2246C24.0967 26.1668 24.1669 26.1091 24.2371 26.0506C24.2526 26.037 24.2685 26.0238 24.284 26.0106C24.3289 25.973 24.3743 25.9354 24.4185 25.897C24.4247 25.8916 24.4313 25.8858 24.4375 25.8804C24.4576 25.8625 24.4774 25.8447 24.4976 25.8269C24.5003 25.8246 24.503 25.8222 24.5061 25.8195C24.5111 25.8149 24.5165 25.8106 24.5216 25.8056C24.5313 25.7974 24.5402 25.7889 24.5499 25.7804C24.5979 25.7377 24.646 25.6959 24.6937 25.6524C24.7173 25.6307 24.7402 25.6086 24.7639 25.5873C24.8305 25.5257 24.8968 25.4637 24.9623 25.4009C25.003 25.3621 25.0426 25.3218 25.0829 25.2822C25.1085 25.257 25.1341 25.2322 25.1596 25.207C25.2073 25.1597 25.2542 25.1121 25.3015 25.064C25.3135 25.052 25.3256 25.04 25.3376 25.0276C25.3391 25.0264 25.3403 25.0248 25.3418 25.0233C25.3542 25.0105 25.3663 24.9977 25.3783 24.9849C25.436 24.9256 25.4926 24.8655 25.5488 24.8051C25.569 24.7833 25.5892 24.7616 25.6093 24.7395L25.6078 24.7399Z" fill="#FCCD03"/>
<path id="Vector_2" d="M13.1198 18.4121L13.7955 20.9461H15.1464L15.8221 18.4121H13.1198Z" fill="#293E64"/>
<path id="Vector_3" d="M15.0867 21.3965H13.8555L12.5484 34.6283L14.4711 37.1058L16.3938 34.6283L15.0867 21.3965Z" fill="#293E64"/>
<path id="Vector_4" d="M44.2531 13.8955L42.1769 8.82786L40.1007 13.8955H44.2531ZM40.6368 4.69751H43.8069L50.5043 20.4367H46.91L45.4812 16.9316H38.873L37.4441 20.4367H33.9395L40.6368 4.69751Z" fill="#293E64"/>
<path id="Vector_5" d="M58.6301 12.6895C59.493 12.6895 60.1628 12.4627 60.6392 12.0084C61.1152 11.5549 61.3536 10.9928 61.3536 10.3229V10.278C61.3536 9.50462 61.1044 8.91656 60.6059 8.51458C60.107 8.11298 59.4263 7.91179 58.5634 7.91179H55.9065V12.6895H58.6301ZM52.4688 4.80908H58.8537C59.7914 4.80908 60.6284 4.93933 61.3653 5.19983C62.1022 5.46033 62.7271 5.82859 63.2403 6.30462C63.7539 6.78103 64.1482 7.35048 64.4234 8.01297C64.6986 8.67506 64.8366 9.4081 64.8366 10.2117V10.2563C64.8366 11.1641 64.6727 11.9607 64.3455 12.6453C64.0179 13.3299 63.5675 13.9032 62.9949 14.3641C62.4216 14.8254 61.7521 15.1716 60.9854 15.4022C60.2186 15.6333 59.3964 15.7484 58.5184 15.7484H55.9065V20.4366H52.4684V4.80947L52.4688 4.80908Z" fill="#293E64"/>
<path id="Vector_6" d="M70.5742 7.97885H65.819V4.80908H78.7675V7.97885H74.0122V20.4362H70.5742V7.97885Z" fill="#293E64"/>
<path id="Vector_7" d="M88.5903 17.5341C89.2749 17.5341 89.9075 17.4081 90.4878 17.1546C91.0685 16.9018 91.5631 16.5518 91.9725 16.1052C92.3815 15.6587 92.7017 15.1415 92.9323 14.5539C93.163 13.9662 93.2785 13.3371 93.2785 12.6676V12.6226C93.2785 11.9528 93.163 11.3205 92.9323 10.7251C92.7013 10.1297 92.3741 9.6087 91.95 9.16213C91.5259 8.71556 91.0235 8.36242 90.4432 8.10192C89.8625 7.84142 89.2303 7.71117 88.5457 7.71117C87.846 7.71117 87.2095 7.83793 86.6366 8.09068C86.0636 8.3442 85.5725 8.69347 85.1631 9.14003C84.7534 9.5866 84.4336 10.1037 84.2033 10.6918C83.9723 11.2798 83.8572 11.9082 83.8572 12.5781V12.6226C83.8572 13.2925 83.9727 13.9251 84.2033 14.5202C84.434 15.1156 84.7615 15.6362 85.1856 16.0827C85.6101 16.5293 86.1082 16.8828 86.6815 17.1433C87.2545 17.4038 87.8906 17.5341 88.5903 17.5341ZM88.5457 20.7042C87.3401 20.7042 86.2311 20.4926 85.2193 20.0677C84.2068 19.6437 83.3327 19.0707 82.5961 18.3489C81.8592 17.6271 81.2863 16.7786 80.877 15.8036C80.4676 14.8291 80.2633 13.7832 80.2633 12.6672V12.6222C80.2633 11.5062 80.4715 10.4604 80.8886 9.48581C81.3049 8.51127 81.8817 7.65497 82.6186 6.91844C83.3555 6.18153 84.2336 5.60122 85.2531 5.17714C86.2726 4.75306 87.3851 4.54102 88.5907 4.54102C89.7963 4.54102 90.9045 4.75306 91.9171 5.17714C92.9288 5.60122 93.8037 6.17416 94.5403 6.89596C95.2772 7.61814 95.8497 8.46631 96.2595 9.44123C96.6684 10.4162 96.8735 11.4616 96.8735 12.5777V12.6222C96.8735 13.7383 96.6649 14.7845 96.2482 15.7587C95.8315 16.7336 95.2547 17.5891 94.5182 18.326C93.7812 19.063 92.9032 19.6433 91.8837 20.0673C90.8638 20.4918 89.7517 20.7039 88.5461 20.7039L88.5457 20.7042Z" fill="#293E64"/>
<path id="Vector_8" d="M111.316 20.6597C110.126 20.6597 108.957 20.455 107.811 20.0456C106.665 19.6363 105.623 19.0075 104.686 18.159L106.717 15.7257C107.432 16.306 108.165 16.7677 108.916 17.1096C109.668 17.4523 110.49 17.6232 111.383 17.6232C112.097 17.6232 112.652 17.493 113.046 17.2325C113.441 16.9724 113.638 16.6111 113.638 16.1498V16.1052C113.638 15.8819 113.597 15.685 113.515 15.5137C113.432 15.3431 113.276 15.1826 113.045 15.0334C112.813 14.8849 112.493 14.7361 112.082 14.5868C111.671 14.438 111.138 14.2821 110.482 14.1178C109.691 13.9247 108.975 13.7088 108.333 13.4704C107.691 13.2324 107.146 12.9386 106.699 12.5885C106.251 12.2392 105.904 11.8039 105.658 11.2825C105.411 10.7619 105.289 10.1142 105.289 9.34005V9.29548C105.289 8.58105 105.421 7.93756 105.687 7.36423C105.953 6.79168 106.327 6.29666 106.808 5.87994C107.288 5.46322 107.862 5.14303 108.53 4.92013C109.196 4.69685 109.932 4.58521 110.736 4.58521C111.882 4.58521 112.935 4.75654 113.895 5.09883C114.855 5.44112 115.737 5.93227 116.541 6.57188L114.754 9.16174C114.055 8.68571 113.371 8.31008 112.701 8.03447C112.031 7.75924 111.361 7.62124 110.692 7.62124C110.022 7.62124 109.52 7.75187 109.185 8.01198C108.85 8.27248 108.682 8.59616 108.682 8.98265V9.02761C108.682 9.28113 108.731 9.50015 108.828 9.68622C108.925 9.87268 109.1 10.0401 109.354 10.1886C109.608 10.3375 109.955 10.479 110.395 10.6131C110.835 10.7468 111.391 10.903 112.063 11.0817C112.853 11.2903 113.558 11.5248 114.178 11.7849C114.797 12.0454 115.319 12.3583 115.745 12.7226C116.17 13.0874 116.491 13.5154 116.707 14.0061C116.924 14.4973 117.032 15.0853 117.032 15.7699V15.8141C117.032 16.5882 116.891 17.2767 116.611 17.8791C116.33 18.4819 115.938 18.9881 115.435 19.3971C114.932 19.8068 114.332 20.1193 113.635 20.3348C112.938 20.55 112.165 20.6585 111.317 20.6585L111.316 20.6597Z" fill="#293E64"/>
<path id="Vector_9" d="M127.212 17.5341C127.896 17.5341 128.529 17.4081 129.109 17.1546C129.69 16.9018 130.185 16.5518 130.594 16.1052C131.003 15.6587 131.323 15.1415 131.554 14.5539C131.784 13.9662 131.9 13.3371 131.9 12.6676V12.6226C131.9 11.9528 131.784 11.3205 131.554 10.7251C131.323 10.1297 130.996 9.6087 130.572 9.16213C130.147 8.71556 129.645 8.36242 129.065 8.10192C128.484 7.84142 127.852 7.71117 127.167 7.71117C126.468 7.71117 125.831 7.83793 125.258 8.09068C124.686 8.3442 124.194 8.69347 123.785 9.14003C123.375 9.5866 123.055 10.1037 122.825 10.6918C122.594 11.2798 122.479 11.9082 122.479 12.5781V12.6226C122.479 13.2925 122.595 13.9251 122.825 14.5202C123.056 15.1156 123.383 15.6362 123.808 16.0827C124.232 16.5293 124.73 16.8828 125.303 17.1433C125.876 17.4038 126.512 17.5341 127.212 17.5341H127.212ZM127.167 20.7042C125.961 20.7042 124.853 20.4926 123.84 20.0677C122.828 19.6437 121.954 19.0707 121.217 18.3489C120.48 17.6271 119.907 16.7786 119.498 15.8036C119.089 14.8291 118.884 13.7832 118.884 12.6672V12.6222C118.884 11.5062 119.093 10.4604 119.509 9.48581C119.926 8.51127 120.503 7.65497 121.239 6.91844C121.976 6.18153 122.854 5.60122 123.874 5.17714C124.893 4.75306 126.006 4.54102 127.211 4.54102C128.417 4.54102 129.525 4.75306 130.538 5.17714C131.55 5.60122 132.424 6.17416 133.161 6.89596C133.898 7.61814 134.47 8.46631 134.88 9.44123C135.289 10.4162 135.494 11.4616 135.494 12.5777V12.6222C135.494 13.7383 135.286 14.7845 134.869 15.7587C134.452 16.7336 133.875 17.5891 133.139 18.326C132.402 19.063 131.524 19.6433 130.504 20.0673C129.485 20.4918 128.372 20.7039 127.167 20.7039V20.7042Z" fill="#293E64"/>
<path id="Vector_10" d="M138.106 4.80908H141.544V17.3331H149.335V20.4362H138.106V4.80908Z" fill="#293E64"/>
<path id="Vector_11" d="M157.997 20.682C155.898 20.682 154.246 20.1017 153.041 18.9407C151.835 17.7797 151.232 16.0465 151.232 13.7393V4.80947H154.67V13.6501C154.67 14.9301 154.968 15.8938 155.563 16.5411C156.159 17.1889 156.984 17.5122 158.042 17.5122C159.098 17.5122 159.924 17.1994 160.52 16.5745C161.114 15.9492 161.412 15.0119 161.412 13.7613V4.80908H164.851V13.6272C164.851 14.8181 164.69 15.8523 164.37 16.7303C164.05 17.6087 163.592 18.3418 162.997 18.9294C162.402 19.5175 161.68 19.9563 160.831 20.2466C159.983 20.537 159.038 20.682 157.996 20.682H157.997Z" fill="#293E64"/>
<path id="Vector_12" d="M171.548 7.97885H166.793V4.80908H179.741V7.97885H174.986V20.4362H171.548V7.97885Z" fill="#293E64"/>
<path id="Vector_13" d="M182.085 4.80908H185.523V20.4362H182.085V4.80908Z" fill="#293E64"/>
<path id="Vector_14" d="M196.619 17.5341C197.304 17.5341 197.936 17.4081 198.517 17.1546C199.097 16.9018 199.592 16.5518 200.001 16.1052C200.41 15.6587 200.731 15.1415 200.961 14.5539C201.192 13.9662 201.307 13.3371 201.307 12.6676V12.6226C201.307 11.9528 201.192 11.3205 200.961 10.7251C200.73 10.1297 200.403 9.6087 199.979 9.16213C199.555 8.71556 199.052 8.36242 198.472 8.10192C197.891 7.84142 197.259 7.71117 196.575 7.71117C195.875 7.71117 195.238 7.83793 194.666 8.09068C194.092 8.3442 193.601 8.69347 193.192 9.14003C192.783 9.5866 192.463 10.1037 192.232 10.6918C192.001 11.2798 191.886 11.9082 191.886 12.5781V12.6226C191.886 13.2925 192.001 13.9251 192.232 14.5202C192.463 15.1156 192.79 15.6362 193.214 16.0827C193.639 16.5293 194.137 16.8828 194.71 17.1433C195.283 17.4038 195.919 17.5341 196.619 17.5341ZM196.575 20.7042C195.369 20.7042 194.26 20.4926 193.248 20.0677C192.236 19.6437 191.362 19.0707 190.625 18.3489C189.888 17.6271 189.315 16.7786 188.906 15.8036C188.497 14.8291 188.292 13.7832 188.292 12.6672V12.6222C188.292 11.5062 188.5 10.4604 188.917 9.48581C189.334 8.51127 189.911 7.65497 190.647 6.91844C191.384 6.18153 192.262 5.60122 193.282 5.17714C194.301 4.75306 195.414 4.54102 196.62 4.54102C197.825 4.54102 198.933 4.75306 199.946 5.17714C200.958 5.60122 201.832 6.17416 202.569 6.89596C203.306 7.61814 203.878 8.46631 204.288 9.44123C204.697 10.4162 204.902 11.4616 204.902 12.5777V12.6222C204.902 13.7383 204.693 14.7845 204.277 15.7587C203.86 16.7336 203.284 17.5891 202.547 18.326C201.81 19.063 200.932 19.6433 199.912 20.0673C198.893 20.4918 197.78 20.7039 196.575 20.7039V20.7042Z" fill="#293E64"/>
<path id="Vector_15" d="M207.513 4.80908H210.684L218.005 14.4308V4.80908H221.399V20.4362H218.475L210.907 10.5016V20.4362H207.513V4.80908Z" fill="#293E64"/>
<path id="Vector_16" d="M230.285 20.6597C229.094 20.6597 227.925 20.455 226.779 20.0456C225.633 19.6363 224.592 19.0075 223.654 18.159L225.685 15.7257C226.4 16.306 227.133 16.7677 227.884 17.1096C228.636 17.4523 229.458 17.6232 230.351 17.6232C231.066 17.6232 231.62 17.493 232.014 17.2325C232.408 16.9724 232.606 16.6111 232.606 16.1498V16.1052C232.606 15.8819 232.565 15.685 232.483 15.5137C232.4 15.3431 232.244 15.1826 232.012 15.0334C231.781 14.8849 231.46 14.7361 231.05 14.5868C230.64 14.438 230.106 14.2821 229.45 14.1178C228.659 13.9247 227.942 13.7088 227.3 13.4704C226.659 13.2324 226.114 12.9386 225.667 12.5885C225.219 12.2392 224.872 11.8039 224.626 11.2825C224.38 10.7619 224.257 10.1142 224.257 9.34005V9.29548C224.257 8.58105 224.389 7.93756 224.656 7.36423C224.921 6.79168 225.295 6.29666 225.776 5.87994C226.257 5.46322 226.83 5.14303 227.497 4.92013C228.165 4.69685 228.9 4.58521 229.704 4.58521C230.85 4.58521 231.903 4.75654 232.863 5.09883C233.823 5.44112 234.704 5.93227 235.508 6.57188L233.723 9.16174C233.023 8.68571 232.338 8.31008 231.669 8.03447C230.999 7.75924 230.329 7.62124 229.66 7.62124C228.99 7.62124 228.488 7.75187 228.153 8.01198C227.818 8.27248 227.65 8.59616 227.65 8.98265V9.02761C227.65 9.28113 227.699 9.50015 227.796 9.68622C227.893 9.87268 228.068 10.0401 228.322 10.1886C228.576 10.3375 228.923 10.479 229.363 10.6131C229.803 10.7468 230.359 10.903 231.031 11.0817C231.822 11.2903 232.526 11.5248 233.146 11.7849C233.765 12.0454 234.287 12.3583 234.713 12.7226C235.138 13.0874 235.459 13.5154 235.676 14.0061C235.892 14.4973 236 15.0853 236 15.7699V15.8141C236 16.5882 235.86 17.2767 235.579 17.8791C235.298 18.4819 234.906 18.9881 234.403 19.3971C233.9 19.8068 233.3 20.1193 232.603 20.3348C231.906 20.55 231.133 20.6585 230.285 20.6585L230.285 20.6597Z" fill="#293E64"/>
<path id="Vector_17" d="M39.2013 25.5564H39.4409V27.5035H39.0687C39.0618 26.9942 38.916 26.6251 38.6307 26.3976C38.345 26.17 37.9101 26.0561 37.3259 26.0561H36.9386C36.901 26.4267 36.8824 26.7581 36.8824 27.0504C36.8824 27.6311 36.9952 28.0594 37.2216 28.3346C37.4476 28.6099 37.812 28.7475 38.3148 28.7475H38.8141V29.1045L36.9386 29.1557V32.0863H37.479C38.6206 32.0863 39.275 31.5428 39.4413 30.4551H39.8033L39.3855 32.5553H39.1304C39.1269 32.4057 39.0625 32.3309 38.9369 32.3309H35.2214V32.0863C35.5272 32.0828 35.7327 32.0258 35.8381 31.9142C35.9436 31.8025 35.9963 31.5916 35.9963 31.2811V26.8678C35.9963 26.5348 35.9377 26.3177 35.8203 26.2173C35.7032 26.1173 35.5036 26.0634 35.2214 26.0565V25.8122H38.8606C39.0815 25.8122 39.1951 25.7273 39.2021 25.5572L39.2013 25.5564Z" fill="#293E64"/>
<path id="Vector_18" d="M42.5572 27.6616H44.4229V27.9062C44.2868 27.9097 44.219 27.957 44.219 28.0485C44.219 28.0927 44.2326 28.1334 44.2597 28.1706L45.1296 29.4231C45.2924 29.2238 45.4409 29.0312 45.5754 28.8439C45.7095 28.6571 45.7766 28.4702 45.7766 28.2834C45.7766 28.0388 45.6083 27.9128 45.2722 27.9062V27.6616H47.3357V27.9062C47.0635 27.9198 46.7887 28.0431 46.51 28.2756C46.2313 28.5086 45.8204 28.9618 45.2773 29.6355L46.3061 31.1171C46.4759 31.3582 46.6619 31.5776 46.8643 31.7749C47.0662 31.9718 47.293 32.0757 47.5446 32.0858V32.3304H45.72V32.0858C45.832 32.0858 45.8882 32.0505 45.8882 31.9788C45.8882 31.9176 45.8595 31.8532 45.8018 31.7854L44.7586 30.279C44.483 30.6205 44.2888 30.8899 44.1744 31.0872C44.0605 31.2842 44.0039 31.4714 44.0039 31.6482C44.0039 31.9335 44.2078 32.0796 44.6156 32.0862V32.3308H42.3478V32.0862C42.7723 32.049 43.2991 31.6513 43.9275 30.8934L44.6078 30.0619L43.7651 28.8447C43.5616 28.5563 43.3642 28.3291 43.1739 28.1644C42.9836 27.9996 42.7781 27.9136 42.5572 27.907V27.6624V27.6616Z" fill="#293E64"/>
<path id="Vector_19" d="M53.0406 29.114C52.9999 28.7132 52.8724 28.4019 52.658 28.1814C52.444 27.9604 52.1909 27.8499 51.899 27.8499C51.5932 27.8499 51.3195 27.9697 51.0784 28.2093C50.8373 28.4488 50.6892 28.7504 50.6349 29.114H53.041H53.0406ZM54.0295 31.0511C53.2721 32.0024 52.5324 32.4784 51.8122 32.4784C51.3059 32.4784 50.859 32.2582 50.4717 31.8182C50.0844 31.3783 49.8906 30.8557 49.8906 30.2506C49.8906 29.5544 50.1205 28.9264 50.5814 28.3674C51.0419 27.8084 51.5846 27.5286 52.2099 27.5286C52.7127 27.5286 53.1123 27.7073 53.4077 28.0639C53.7031 28.4205 53.8597 28.8555 53.8768 29.3687H50.5892C50.5822 29.5009 50.5787 29.5978 50.5787 29.6591C50.5787 30.2603 50.7388 30.7627 51.0578 31.1654C51.3772 31.5678 51.7715 31.7694 52.2401 31.7694C52.8247 31.7694 53.4209 31.4178 54.0295 30.7142V31.0507V31.0511Z" fill="#293E64"/>
<path id="Vector_20" d="M60.8214 31.0867C60.0771 32.0144 59.3569 32.4784 58.6603 32.4784C58.2118 32.4784 57.7831 32.288 57.3737 31.9074C56.964 31.5267 56.7593 30.9848 56.7593 30.2812C56.7593 29.5505 57.0081 28.9066 57.5059 28.3492C58.0036 27.7921 58.601 27.5134 59.2976 27.5134C59.7224 27.5134 60.183 27.6255 60.6788 27.8499V29.1803H60.3066C60.2965 28.7744 60.1678 28.4461 59.9217 28.1953C59.6751 27.9445 59.367 27.8193 58.9964 27.8193C58.5273 27.8193 58.1598 28.0193 57.8928 28.4201C57.6261 28.8202 57.4927 29.2807 57.4927 29.8021C57.4927 30.3677 57.6388 30.8429 57.9311 31.2278C58.2234 31.6132 58.6006 31.805 59.0627 31.805C59.3449 31.805 59.6189 31.7221 59.8856 31.5554C60.1523 31.3891 60.464 31.1139 60.821 30.7297V31.0867H60.8214Z" fill="#293E64"/>
<path id="Vector_21" d="M63.6632 27.8398L65.4115 27.5286V27.7274C65.2723 27.7681 65.2026 27.8856 65.2026 28.0798V31.2387C65.2026 31.4461 65.2483 31.6093 65.3398 31.7283C65.4313 31.8473 65.5534 31.907 65.7057 31.907C66.0957 31.907 66.4837 31.6132 66.8702 31.0251C67.2567 30.4374 67.4501 29.7455 67.4501 28.9508C67.4501 28.645 67.4102 28.4174 67.3311 28.2678C67.2517 28.1186 67.1106 28.0437 66.9082 28.0437C66.8439 28.0437 66.7477 28.0573 66.6194 28.0844V27.8398L68.3878 27.5286V27.7274C68.2382 27.7515 68.1634 27.8689 68.1634 28.0802V31.367C68.1634 31.683 68.2808 31.8411 68.515 31.8411C68.6542 31.8411 68.8329 31.7899 69.0499 31.6884V31.933L67.6436 32.4935H67.3939V30.8014C66.8605 31.5287 66.438 31.99 66.1271 32.185C65.8162 32.3803 65.5282 32.4784 65.263 32.4784C64.7025 32.4784 64.4222 32.0807 64.4222 31.2856V28.4973C64.4222 28.2019 64.2641 28.0542 63.9481 28.0542C63.8803 28.0542 63.7849 28.0643 63.6628 28.0844V27.8398H63.6632Z" fill="#293E64"/>
<path id="Vector_22" d="M73.58 26.0555V26.3206C73.3656 26.3718 73.259 26.6129 73.259 27.0443C73.259 27.3366 73.2834 27.5405 73.3327 27.6557C73.3819 27.7716 73.4683 27.8665 73.5928 27.941C73.7168 28.0158 73.8823 28.0534 74.0897 28.0534H74.513V28.2825H73.264V31.555C73.264 31.6604 73.2854 31.7403 73.328 31.7945C73.3703 31.8488 73.4342 31.8759 73.5191 31.8759C73.6854 31.8759 73.9335 31.7403 74.263 31.4681C74.3002 31.4375 74.3293 31.4158 74.3494 31.4019V31.6976C73.7703 32.2175 73.3086 32.4776 72.9644 32.4776C72.8043 32.4776 72.6841 32.4156 72.6039 32.2915C72.5236 32.1675 72.4841 31.9833 72.4841 31.7387V28.2825H71.7042V28.0534C72.003 28.0534 72.2155 27.9937 72.3415 27.8747C72.467 27.7557 72.5298 27.5467 72.5298 27.2479V26.478L73.58 26.0547V26.0555Z" fill="#293E64"/>
<path id="Vector_23" d="M78.3584 25.3981C78.5046 25.3981 78.624 25.4465 78.7178 25.5435C78.8112 25.64 78.8581 25.7547 78.8581 25.8873C78.8581 26.0199 78.8108 26.1338 78.7155 26.2288C78.6205 26.3238 78.5046 26.3711 78.3689 26.3711C78.2363 26.3711 78.1227 26.3246 78.0274 26.2311C77.9324 26.1377 77.8847 26.023 77.8847 25.8869C77.8847 25.7443 77.934 25.6268 78.0324 25.5353C78.1313 25.4434 78.2398 25.3977 78.3588 25.3977L78.3584 25.3981ZM77.2013 32.0854C77.463 32.0788 77.6583 32.0218 77.7874 31.9148C77.9165 31.8078 77.9809 31.5996 77.9809 31.2907V28.5027C77.9809 28.2888 77.8584 28.1818 77.6138 28.1818C77.5254 28.1818 77.4285 28.2039 77.3234 28.2481C77.2688 28.2717 77.2285 28.2868 77.2009 28.2938V28.0337L78.51 27.5189H78.7604V31.2907C78.7604 31.593 78.8232 31.7997 78.9492 31.9101C79.0748 32.0206 79.2721 32.0792 79.5404 32.0857V32.3303H77.2009V32.0857L77.2013 32.0854Z" fill="#293E64"/>
<path id="Vector_24" d="M81.822 27.6615H83.4633V27.9061C83.3342 27.9061 83.2699 27.967 83.2699 28.0895C83.2699 28.1507 83.2869 28.2321 83.321 28.3341L84.4084 31.3879L85.0488 29.7967C85.2628 29.2668 85.3705 28.8384 85.3717 28.5124C85.3717 28.298 85.3135 28.1445 85.1976 28.0511C85.0817 27.9577 84.8926 27.9092 84.6309 27.9061V27.6615H86.8071V27.9061C86.4187 27.9468 86.0532 28.3732 85.7113 29.185L84.2789 32.5644H84.0087L82.709 28.8946C82.4779 28.2387 82.1821 27.9092 81.822 27.9057V27.6611V27.6615Z" fill="#293E64"/>
<path id="Vector_25" d="M92.2892 29.114C92.2485 28.7132 92.121 28.4019 91.907 28.1814C91.693 27.9604 91.4399 27.8499 91.1476 27.8499C90.8421 27.8499 90.5681 27.9697 90.327 28.2093C90.0858 28.4488 89.9382 28.7504 89.8835 29.114H92.2892ZM93.2781 31.0511C92.5203 32.0024 91.7814 32.4784 91.0608 32.4784C90.5545 32.4784 90.1076 32.2582 89.7203 31.8182C89.333 31.3783 89.1392 30.8557 89.1392 30.2506C89.1392 29.5544 89.3695 28.9264 89.83 28.3674C90.2905 27.8084 90.8332 27.5286 91.4585 27.5286C91.9613 27.5286 92.3605 27.7073 92.6563 28.0639C92.9521 28.4205 93.1079 28.8555 93.1254 29.3687H89.8378C89.8308 29.5009 89.8277 29.5978 89.8277 29.6591C89.8277 30.2603 89.9874 30.7627 90.3068 31.1654C90.6262 31.5678 91.0201 31.7694 91.4891 31.7694C92.0733 31.7694 92.6699 31.4178 93.2781 30.7142V31.0507V31.0511Z" fill="#293E64"/>
<path id="Vector_26" d="M101.802 28.5128C101.645 28.3635 101.527 28.2034 101.447 28.0336C101.366 27.8635 101.326 27.6855 101.326 27.4983C101.326 27.0091 101.551 26.5807 102.001 26.214C102.451 25.8469 102.977 25.6636 103.581 25.6636C103.884 25.6636 104.288 25.75 104.792 25.9237V27.5188H104.42C104.393 27.0754 104.256 26.7129 104.01 26.4319C103.764 26.1508 103.464 26.0101 103.109 26.0101C102.819 26.0101 102.579 26.0993 102.39 26.2772C102.2 26.4551 102.106 26.6792 102.106 26.9502C102.106 27.2111 102.2 27.4553 102.389 27.682C102.575 27.9092 103.02 28.2592 103.725 28.7333C104.259 29.0911 104.62 29.3803 104.807 29.6017C104.99 29.8261 105.082 30.1017 105.082 30.4281C105.082 30.9619 104.836 31.4372 104.345 31.8539C103.853 32.2706 103.296 32.4788 102.673 32.4788C102.227 32.4788 101.727 32.3733 101.173 32.1624V30.3223H101.535C101.535 30.839 101.684 31.2705 101.984 31.617C102.284 31.9636 102.639 32.1369 103.051 32.1369C103.429 32.1369 103.728 32.0264 103.947 31.8058C104.167 31.5848 104.277 31.3046 104.277 30.9646C104.277 30.6688 104.186 30.4091 104.006 30.1847C103.825 29.9637 103.414 29.6408 102.773 29.2163C102.422 28.9853 102.098 28.7508 101.801 28.5132L101.802 28.5128Z" fill="#293E64"/>
<path id="Vector_27" d="M111.029 29.114C110.988 28.7132 110.861 28.4019 110.647 28.1814C110.433 27.9604 110.179 27.8499 109.888 27.8499C109.582 27.8499 109.308 27.9697 109.067 28.2093C108.825 28.4488 108.678 28.7504 108.623 29.114H111.029H111.029ZM112.018 31.0511C111.261 32.0024 110.521 32.4784 109.801 32.4784C109.295 32.4784 108.848 32.2582 108.461 31.8182C108.073 31.3783 107.88 30.8557 107.88 30.2506C107.88 29.5544 108.109 28.9264 108.57 28.3674C109.031 27.8084 109.574 27.5286 110.199 27.5286C110.702 27.5286 111.101 27.7073 111.397 28.0639C111.692 28.4205 111.848 28.8555 111.866 29.3687H108.578C108.571 29.5009 108.568 29.5978 108.568 29.6591C108.568 30.2603 108.728 30.7627 109.047 31.1654C109.366 31.5678 109.76 31.7694 110.229 31.7694C110.814 31.7694 111.41 31.4178 112.018 30.7142V31.0507V31.0511Z" fill="#293E64"/>
<path id="Vector_28" d="M117.704 29.4812C117.074 29.6103 116.563 29.832 116.171 30.146C115.779 30.4604 115.584 30.7825 115.584 31.112C115.584 31.3229 115.649 31.4907 115.78 31.6163C115.911 31.7423 116.082 31.8051 116.294 31.8051C116.686 31.8051 117.017 31.5985 117.288 31.1861C117.558 30.7728 117.697 30.2049 117.704 29.4808V29.4812ZM115.308 28.2935C116.091 27.7771 116.828 27.5186 117.519 27.5186C117.842 27.5186 118.075 27.5899 118.218 27.7329C118.361 27.8756 118.431 28.1167 118.428 28.4567V31.6423C118.428 31.7951 118.497 31.8714 118.636 31.8714C118.771 31.8714 119.009 31.7152 119.35 31.4024V31.7183C118.833 32.2249 118.412 32.4781 118.086 32.4781C117.794 32.4781 117.648 32.3149 117.648 31.9889V31.2345C117.223 31.6698 116.864 31.9858 116.57 32.1827C116.276 32.3796 115.998 32.4785 115.736 32.4785C115.481 32.4785 115.264 32.3792 115.084 32.1804C114.904 31.9815 114.814 31.7392 114.814 31.4539C114.814 30.7166 115.758 29.9212 117.648 29.0687V28.4567C117.648 28.2702 117.592 28.1151 117.48 27.993C117.368 27.8705 117.213 27.8093 117.016 27.8093C116.679 27.8093 116.381 27.9725 116.119 28.2985C115.857 28.6249 115.701 29.0308 115.65 29.5169H115.308V28.2935Z" fill="#293E64"/>
<path id="Vector_29" d="M121.968 28.0645L123.308 27.519H123.533V29.1754C123.882 28.5777 124.195 28.1536 124.47 27.904C124.746 27.6543 125.027 27.5291 125.316 27.5291C125.429 27.5291 125.563 27.5547 125.719 27.6055V29.1754H125.357C125.354 28.5603 125.175 28.2529 124.822 28.2529C124.472 28.2529 124.16 28.5393 123.887 29.1119C123.613 29.6844 123.476 30.3326 123.476 31.0563C123.476 31.4846 123.556 31.763 123.714 31.8921C123.871 32.0211 124.173 32.0859 124.618 32.0859V32.3305H121.968V32.0859C122.246 32.0789 122.447 32.0188 122.569 31.9049C122.691 31.7909 122.753 31.5862 122.753 31.2908V28.6455C122.753 28.3467 122.642 28.197 122.421 28.197C122.33 28.197 122.178 28.2342 121.968 28.3091V28.0648V28.0645Z" fill="#293E64"/>
<path id="Vector_30" d="M132.557 31.0867C131.813 32.0144 131.092 32.4784 130.396 32.4784C129.947 32.4784 129.518 32.288 129.109 31.9074C128.699 31.5267 128.494 30.9848 128.494 30.2812C128.494 29.5505 128.743 28.9066 129.241 28.3492C129.739 27.7921 130.336 27.5134 131.033 27.5134C131.458 27.5134 131.918 27.6255 132.414 27.8499V29.1803H132.042C132.031 28.7744 131.903 28.4461 131.657 28.1953C131.41 27.9445 131.102 27.8193 130.732 27.8193C130.263 27.8193 129.895 28.0193 129.628 28.4201C129.361 28.8202 129.228 29.2807 129.228 29.8021C129.228 30.3677 129.374 30.8429 129.666 31.2278C129.958 31.6132 130.335 31.805 130.797 31.805C131.079 31.805 131.354 31.7221 131.621 31.5554C131.888 31.3891 132.199 31.1139 132.556 30.7297V31.0867H132.557Z" fill="#293E64"/>
<path id="Vector_31" d="M136.989 25.1128V25.3322C136.85 25.3865 136.78 25.509 136.78 25.6993V29.2059C137.177 28.6423 137.555 28.219 137.912 27.9368C138.269 27.655 138.605 27.5139 138.921 27.5139C139.183 27.5139 139.387 27.6073 139.532 27.7941C139.679 27.9841 139.752 28.2632 139.752 28.6303V31.2907C139.752 31.583 139.81 31.7869 139.928 31.9024C140.045 32.0179 140.246 32.0792 140.532 32.0857V32.3303H138.748V32.0857C138.897 32.0792 138.972 31.9877 138.972 31.8105V28.7675C138.972 28.5465 138.927 28.3814 138.838 28.2705C138.748 28.1601 138.614 28.105 138.434 28.105C138.015 28.105 137.625 28.4132 137.265 29.0303C136.904 29.6471 136.724 30.3227 136.724 31.0569C136.724 31.7435 136.932 32.0865 137.348 32.0857H137.55V32.3303H135.231V32.0857C135.493 32.0792 135.686 32.0214 135.812 31.9129C135.938 31.8039 136.001 31.5965 136.001 31.2907V26.2602C136.001 26.0594 135.888 25.9594 135.662 25.9594C135.536 25.9594 135.39 25.9916 135.226 26.0559V25.8113L136.99 25.1132L136.989 25.1128Z" fill="#293E64"/>
<path id="Vector_32" d="M150.778 28.0739C151.213 27.6739 151.499 27.3731 151.636 27.1715C151.773 26.9699 151.842 26.7637 151.842 26.5536C151.842 26.3842 151.782 26.24 151.661 26.1214C151.541 26.0028 151.373 25.9435 151.159 25.9435C150.908 25.9435 150.707 26.0268 150.558 26.1927C150.408 26.359 150.334 26.5641 150.334 26.8079C150.334 27.0928 150.482 27.5146 150.778 28.0739ZM150.115 28.9101C149.557 29.4877 149.278 30.0502 149.278 30.5975C149.278 30.9235 149.365 31.191 149.536 31.4003C149.708 31.6089 149.923 31.7135 150.181 31.7135C150.555 31.7135 150.966 31.4352 151.414 30.8778C150.85 30.1164 150.417 29.4609 150.115 28.9105L150.115 28.9101ZM150.012 28.7062C149.642 28.0065 149.457 27.4591 149.457 27.0649C149.457 26.5959 149.691 26.2454 150.158 26.0125C150.625 25.7799 151.084 25.6636 151.536 25.6636C151.842 25.6636 152.11 25.7372 152.341 25.8853C152.572 26.033 152.688 26.2478 152.688 26.53C152.688 26.7308 152.619 26.9223 152.482 27.106C152.344 27.2894 152.022 27.5409 151.516 27.86C151.255 28.0267 151.044 28.1678 150.884 28.2833C151.367 29.0613 151.728 29.6323 151.969 29.9959C152.285 29.5071 152.489 28.9361 152.581 28.2833H154.405V28.5434C153.563 28.5434 152.808 29.1024 152.142 30.2203C152.829 31.1414 153.327 31.6019 153.636 31.6019C153.846 31.6019 154.117 31.3317 154.446 30.7917L154.66 30.8933C154.314 31.5492 154.04 31.9775 153.839 32.1779C153.639 32.3784 153.459 32.4784 153.299 32.4784C152.898 32.4784 152.317 32.0062 151.556 31.0611C151.111 31.6256 150.753 32.0027 150.483 32.1927C150.213 32.383 149.937 32.4784 149.654 32.4784C149.281 32.4784 148.963 32.3307 148.702 32.0349C148.44 31.7395 148.309 31.4046 148.309 31.0309C148.309 30.3479 148.876 29.5734 150.012 28.7066L150.012 28.7062Z" fill="#293E64"/>
<path id="Vector_33" d="M167.919 31.0867C166.843 32.0144 165.862 32.4784 164.976 32.4784C164.253 32.4784 163.603 32.202 163.028 31.65C162.453 31.098 162.165 30.3374 162.165 29.3691C162.165 28.6926 162.315 28.0879 162.613 27.5545C162.912 27.0211 163.335 26.5726 163.884 26.209C164.432 25.8454 165.091 25.6636 165.862 25.6636C166.534 25.6636 167.169 25.769 167.766 25.9795V27.5188H167.404C167.36 27.0362 167.148 26.6602 166.768 26.39C166.388 26.1198 165.934 25.9845 165.409 25.9845C164.672 25.9845 164.093 26.2547 163.672 26.7947C163.252 27.3351 163.041 27.9976 163.041 28.7826C163.041 29.6323 163.281 30.337 163.759 30.8979C164.238 31.4585 164.852 31.7387 165.603 31.7387C166.353 31.7387 167.125 31.4178 167.919 30.7754V31.0863L167.919 31.0867Z" fill="#293E64"/>
<path id="Vector_34" d="M172.82 27.9263C172.358 27.9263 172.004 28.091 171.76 28.4205C171.515 28.7504 171.393 29.1633 171.393 29.6594C171.393 30.2711 171.585 30.8173 171.972 31.298C172.357 31.7787 172.806 32.019 173.319 32.019C173.7 32.019 174.022 31.8609 174.285 31.545C174.549 31.229 174.68 30.8158 174.68 30.3064C174.68 29.8343 174.575 29.4102 174.364 29.0346C174.154 28.6593 173.913 28.381 173.641 28.1988C173.369 28.017 173.095 27.9263 172.82 27.9263ZM173.253 27.5286C173.895 27.5286 174.409 27.7301 174.795 28.1325C175.18 28.5353 175.373 29.0714 175.373 29.7409C175.373 30.5355 175.105 31.1906 174.568 31.7058C174.031 32.2206 173.44 32.478 172.794 32.478C172.149 32.478 171.639 32.2733 171.265 31.8636C170.891 31.4542 170.704 30.9216 170.704 30.2657C170.704 29.4842 170.97 28.8326 171.502 28.3112C172.034 27.7894 172.618 27.5286 173.253 27.5286H173.253Z" fill="#293E64"/>
<path id="Vector_35" d="M178.17 28.0538L179.49 27.5134H179.704V29.1939C180.193 28.5403 180.596 28.0964 180.912 27.8631C181.228 27.6297 181.527 27.5134 181.809 27.5134C182.383 27.5134 182.67 27.8821 182.67 28.6194V31.2902C182.67 31.5926 182.732 31.7992 182.856 31.9097C182.98 32.0202 183.178 32.0787 183.45 32.0853V32.3299H181.676V32.0853C181.819 32.0787 181.89 31.9954 181.89 31.8361V28.6903C181.89 28.5136 181.845 28.3721 181.753 28.2651C181.661 28.1585 181.542 28.105 181.396 28.105C180.968 28.105 180.57 28.4081 180.201 29.0136C179.832 29.6195 179.648 30.3145 179.648 31.098C179.648 31.4949 179.709 31.757 179.831 31.8845C179.954 32.0117 180.171 32.0787 180.484 32.0853V32.3299H178.17V32.0853C178.443 32.0787 178.64 32.019 178.759 31.907C178.879 31.795 178.939 31.5895 178.939 31.2902V28.6857C178.939 28.3492 178.828 28.1813 178.605 28.1813C178.524 28.1813 178.379 28.2236 178.17 28.3085V28.0538Z" fill="#293E64"/>
<path id="Vector_36" d="M186.725 30.7604C186.752 31.2023 186.879 31.5454 187.105 31.79C187.331 32.0346 187.602 32.1571 187.918 32.1571C188.179 32.1571 188.393 32.0772 188.56 31.9175C188.726 31.7578 188.81 31.5554 188.81 31.3112C188.81 31.0938 188.746 30.9104 188.621 30.7608C188.492 30.6146 188.239 30.4231 187.862 30.1847C187.593 30.0149 187.348 29.856 187.128 29.7083C186.907 29.5606 186.754 29.4102 186.669 29.2575C186.58 29.1044 186.537 28.9481 186.537 28.7884C186.537 28.4589 186.688 28.1647 186.993 27.9069C187.297 27.6484 187.7 27.5193 188.203 27.5193C188.513 27.5193 188.846 27.5875 189.202 27.7232V29.0586H188.835C188.832 28.6814 188.726 28.3791 188.519 28.1511C188.312 27.9236 188.074 27.8096 187.805 27.8096C187.615 27.8096 187.466 27.8701 187.36 27.9911C187.253 28.1116 187.199 28.2535 187.199 28.4163C187.199 28.6 187.26 28.7578 187.382 28.8904C187.501 29.0265 187.741 29.2063 188.101 29.4304C188.72 29.8215 189.107 30.0967 189.263 30.2564C189.419 30.4196 189.497 30.6352 189.497 30.9038C189.497 31.3287 189.309 31.6973 188.934 32.0098C188.558 32.3226 188.126 32.4788 187.637 32.4788C187.273 32.4788 186.853 32.3769 186.378 32.173V30.7612H186.724L186.725 30.7604Z" fill="#293E64"/>
<path id="Vector_37" d="M192.228 27.8398L193.976 27.5286V27.7274C193.837 27.7681 193.767 27.8856 193.767 28.0798V31.2387C193.767 31.4461 193.813 31.6093 193.904 31.7283C193.996 31.8473 194.118 31.907 194.271 31.907C194.661 31.907 195.049 31.6132 195.435 31.0251C195.821 30.4374 196.015 29.7455 196.015 28.9508C196.015 28.645 195.975 28.4174 195.896 28.2678C195.816 28.1186 195.676 28.0437 195.473 28.0437C195.409 28.0437 195.312 28.0573 195.184 28.0844V27.8398L196.953 27.5286V27.7274C196.803 27.7515 196.728 27.8689 196.728 28.0802V31.367C196.728 31.683 196.846 31.8411 197.08 31.8411C197.219 31.8411 197.398 31.7899 197.615 31.6884V31.933L196.208 32.4935H195.959V30.8014C195.425 31.5287 195.003 31.99 194.692 32.185C194.381 32.3803 194.093 32.4784 193.828 32.4784C193.267 32.4784 192.987 32.0807 192.987 31.2856V28.4973C192.987 28.2019 192.829 28.0542 192.513 28.0542C192.445 28.0542 192.35 28.0643 192.228 28.0844V27.8398H192.228Z" fill="#293E64"/>
<path id="Vector_38" d="M202.211 25.3217C202.064 25.393 201.992 25.5171 201.992 25.6938V31.2903C201.992 31.5891 202.054 31.795 202.178 31.907C202.302 32.0194 202.499 32.0787 202.772 32.0857V32.3303H200.427V32.0857C200.705 32.0787 200.906 32.0175 201.028 31.9023C201.15 31.7868 201.211 31.5829 201.211 31.2906V26.4435C201.211 26.1307 201.082 25.9745 200.824 25.9745C200.715 25.9745 200.583 26.0016 200.427 26.0559V25.8117L202.21 25.1135V25.3221L202.211 25.3217Z" fill="#293E64"/>
<path id="Vector_39" d="M207.27 26.0555V26.3206C207.056 26.3718 206.948 26.6129 206.948 27.0443C206.948 27.3366 206.973 27.5405 207.022 27.6557C207.071 27.7716 207.158 27.8665 207.283 27.941C207.407 28.0158 207.572 28.0534 207.779 28.0534H208.202V28.2825H206.953V31.555C206.953 31.6604 206.975 31.7403 207.017 31.7945C207.06 31.8488 207.123 31.8759 207.208 31.8759C207.375 31.8759 207.623 31.7403 207.953 31.4681C207.99 31.4375 208.019 31.4158 208.039 31.4019V31.6976C207.46 32.2175 206.998 32.4776 206.654 32.4776C206.494 32.4776 206.374 32.4156 206.294 32.2915C206.214 32.1675 206.174 31.9833 206.174 31.7387V28.2825H205.394V28.0534C205.693 28.0534 205.906 27.9937 206.032 27.8747C206.157 27.7557 206.22 27.5467 206.22 27.2479V26.478L207.27 26.0547L207.27 26.0555Z" fill="#293E64"/>
<path id="Vector_40" d="M213.776 29.4812C213.146 29.6103 212.635 29.832 212.244 30.146C211.852 30.4604 211.656 30.7825 211.656 31.112C211.656 31.3229 211.721 31.4907 211.852 31.6163C211.983 31.7423 212.155 31.8051 212.366 31.8051C212.758 31.8051 213.089 31.5985 213.36 31.1861C213.63 30.7728 213.769 30.2049 213.776 29.4808L213.776 29.4812ZM211.381 28.2935C212.163 27.7771 212.9 27.5186 213.591 27.5186C213.914 27.5186 214.147 27.5899 214.29 27.7329C214.433 27.8756 214.503 28.1167 214.5 28.4567V31.6423C214.5 31.7951 214.569 31.8714 214.708 31.8714C214.843 31.8714 215.081 31.7152 215.423 31.4024V31.7183C214.906 32.2249 214.485 32.4781 214.159 32.4781C213.867 32.4781 213.72 32.3149 213.72 31.9889V31.2345C213.295 31.6698 212.936 31.9858 212.642 32.1827C212.348 32.3796 212.07 32.4785 211.809 32.4785C211.554 32.4785 211.337 32.3792 211.157 32.1804C210.976 31.9815 210.886 31.7392 210.886 31.4539C210.886 30.7166 211.831 29.9212 213.72 29.0687V28.4567C213.72 28.2702 213.664 28.1151 213.552 27.993C213.44 27.8705 213.285 27.8093 213.088 27.8093C212.752 27.8093 212.453 27.9725 212.191 28.2985C211.929 28.6249 211.773 29.0308 211.722 29.5169H211.381V28.2935Z" fill="#293E64"/>
<path id="Vector_41" d="M218.05 28.0538L219.371 27.5134H219.585V29.1939C220.074 28.5403 220.477 28.0964 220.793 27.8631C221.109 27.6297 221.408 27.5134 221.69 27.5134C222.264 27.5134 222.551 27.8821 222.551 28.6194V31.2902C222.551 31.5926 222.613 31.7992 222.737 31.9097C222.861 32.0202 223.059 32.0787 223.331 32.0853V32.3299H221.558V32.0853C221.7 32.0787 221.771 31.9954 221.771 31.8361V28.6903C221.771 28.5136 221.726 28.3721 221.634 28.2651C221.542 28.1585 221.423 28.105 221.277 28.105C220.849 28.105 220.451 28.4081 220.082 29.0136C219.713 29.6195 219.529 30.3145 219.529 31.098C219.529 31.4949 219.59 31.757 219.712 31.8845C219.835 32.0117 220.052 32.0787 220.365 32.0853V32.3299H218.05V32.0853C218.324 32.0787 218.521 32.019 218.64 31.907C218.76 31.795 218.82 31.5895 218.82 31.2902V28.6857C218.82 28.3492 218.709 28.1813 218.486 28.1813C218.405 28.1813 218.26 28.2236 218.05 28.3085V28.0538H218.05Z" fill="#293E64"/>
<path id="Vector_42" d="M227.86 26.0555V26.3206C227.645 26.3718 227.539 26.6129 227.539 27.0443C227.539 27.3366 227.563 27.5405 227.612 27.6557C227.661 27.7716 227.748 27.8665 227.873 27.941C227.997 28.0158 228.163 28.0534 228.37 28.0534H228.792V28.2825H227.543V31.555C227.543 31.6604 227.565 31.7403 227.607 31.7945C227.65 31.8488 227.713 31.8759 227.799 31.8759C227.965 31.8759 228.213 31.7403 228.543 31.4681C228.58 31.4375 228.609 31.4158 228.629 31.4019V31.6976C228.05 32.2175 227.588 32.4776 227.244 32.4776C227.084 32.4776 226.964 32.4156 226.884 32.2915C226.804 32.1675 226.764 31.9833 226.764 31.7387V28.2825H225.984V28.0534C226.283 28.0534 226.496 27.9937 226.622 27.8747C226.747 27.7557 226.81 27.5467 226.81 27.2479V26.478L227.86 26.0547L227.86 26.0555Z" fill="#293E64"/>
<path id="Vector_43" d="M231.945 30.7604C231.972 31.2023 232.099 31.5454 232.325 31.79C232.551 32.0346 232.822 32.1571 233.138 32.1571C233.399 32.1571 233.613 32.0772 233.78 31.9175C233.947 31.7578 234.03 31.5554 234.03 31.3112C234.03 31.0938 233.966 30.9104 233.841 30.7608C233.712 30.6146 233.459 30.4231 233.081 30.1847C232.813 30.0149 232.568 29.856 232.347 29.7083C232.126 29.5606 231.974 29.4102 231.888 29.2575C231.8 29.1044 231.756 28.9481 231.756 28.7884C231.756 28.4589 231.908 28.1647 232.212 27.9069C232.516 27.6484 232.92 27.5193 233.423 27.5193C233.732 27.5193 234.065 27.5875 234.422 27.7232V29.0586H234.054C234.051 28.6814 233.946 28.3791 233.738 28.1511C233.531 27.9236 233.293 27.8096 233.024 27.8096C232.834 27.8096 232.686 27.8701 232.579 27.9911C232.472 28.1116 232.418 28.2535 232.418 28.4163C232.418 28.6 232.479 28.7578 232.602 28.8904C232.721 29.0265 232.96 29.2063 233.32 29.4304C233.939 29.8215 234.326 30.0967 234.482 30.2564C234.639 30.4196 234.717 30.6352 234.717 30.9038C234.717 31.3287 234.529 31.6973 234.154 32.0098C233.778 32.3226 233.346 32.4788 232.856 32.4788C232.493 32.4788 232.073 32.3769 231.598 32.173V30.7612H231.944L231.945 30.7604Z" fill="#293E64"/>
</g>
</g>
</g>
<defs>
<clipPath id="clip0_220_387">
<rect width="236" height="37.1057" fill="white"/>
</clipPath>
</defs>
</svg>
